# xmcd
#
# Track frame offsets: 
#        150
#        18586
#        36256
#        55170
#        76138
#        88599
#        108409
#        123193
#        142394
#        158317
#        162824
#
# Disc length: 2516 seconds
#
# Revision: 0
# Processed by: cddbd v1.5.2PL0 Copyright (c) Steve Scherf et al.
# Submitted via: ExactAudioCopy v1.0b3
#
DISCID=8209d20b
DTITLE=Scott Pemberton - Timber Rock
DYEAR=2015
DGENRE=Blues
TTITLE0=One Time
TTITLE1=Elbow Grease
TTITLE2=What I Do
TTITLE3=Special
TTITLE4=Grieg
TTITLE5=Vehicle
TTITLE6=Best Thing
TTITLE7=Bumpin'
TTITLE8=Theme
TTITLE9=Move
TTITLE10=Dear Prudence
EXTD=
EXTT0=
EXTT1=
EXTT2=
EXTT3=
EXTT4=
EXTT5=
EXTT6=
EXTT7=
EXTT8=
EXTT9=
EXTT10=
PLAYORDER=
